<svg width="21" height="20" viewBox="0 0 21 20" fill="none" xmlns="http://www.w3.org/2000/svg">
<path d="M2.1665 15.8333C2.1665 17.25 3.24984 18.3333 4.6665 18.3333H16.3332C17.7498 18.3333 18.8332 17.25 18.8332 15.8333V9.16663H2.1665V15.8333ZM16.3332 3.33329H14.6665V2.49996C14.6665 1.99996 14.3332 1.66663 13.8332 1.66663C13.3332 1.66663 12.9998 1.99996 12.9998 2.49996V3.33329H7.99984V2.49996C7.99984 1.99996 7.6665 1.66663 7.1665 1.66663C6.6665 1.66663 6.33317 1.99996 6.33317 2.49996V3.33329H4.6665C3.24984 3.33329 2.1665 4.41663 2.1665 5.83329V7.49996H18.8332V5.83329C18.8332 4.41663 17.7498 3.33329 16.3332 3.33329Z" fill="black"/>
</svg>
