<svg width="14" height="15" viewBox="0 0 14 15" fill="none" xmlns="http://www.w3.org/2000/svg">
<g id="Icon/calender">
<path id="Vector" d="M1.16675 11.5834C1.16675 12.575 1.92508 13.3334 2.91675 13.3334H11.0834C12.0751 13.3334 12.8334 12.575 12.8334 11.5834V6.91669H1.16675V11.5834ZM11.0834 2.83335H9.91675V2.25002C9.91675 1.90002 9.68341 1.66669 9.33341 1.66669C8.98341 1.66669 8.75008 1.90002 8.75008 2.25002V2.83335H5.25008V2.25002C5.25008 1.90002 5.01675 1.66669 4.66675 1.66669C4.31675 1.66669 4.08341 1.90002 4.08341 2.25002V2.83335H2.91675C1.92508 2.83335 1.16675 3.59169 1.16675 4.58335V5.75002H12.8334V4.58335C12.8334 3.59169 12.0751 2.83335 11.0834 2.83335Z" fill="#B1B4C3"/>
</g>
</svg>
