<svg width="22" height="22" viewBox="0 0 22 22" fill="none" xmlns="http://www.w3.org/2000/svg">
<g id="Icon/call">
<path id="Vector" d="M13.2516 3.3043C13.269 3.23883 13.2992 3.17743 13.3404 3.12363C13.3816 3.06983 13.433 3.02468 13.4917 2.99076C13.5503 2.95684 13.6151 2.93481 13.6823 2.92595C13.7495 2.91708 13.8178 2.92154 13.8832 2.93907C15.1286 3.26393 16.2649 3.91494 17.175 4.82504C18.0851 5.73513 18.7361 6.87141 19.0609 8.1168C19.0785 8.18226 19.0829 8.25053 19.0741 8.31771C19.0652 8.38489 19.0432 8.44967 19.0093 8.50833C18.9753 8.56699 18.9302 8.61839 18.8764 8.6596C18.8226 8.7008 18.7612 8.73099 18.6957 8.74845C18.6523 8.76002 18.6075 8.76579 18.5625 8.76563C18.4489 8.7657 18.3385 8.72825 18.2483 8.6591C18.1582 8.58994 18.0934 8.49296 18.0641 8.38321C17.7852 7.31345 17.226 6.33741 16.4443 5.55569C15.6626 4.77397 14.6866 4.21485 13.6168 3.93594C13.5513 3.91849 13.4899 3.8883 13.4361 3.84709C13.3823 3.80589 13.3372 3.75449 13.3033 3.69583C13.2693 3.63717 13.2473 3.57239 13.2384 3.50521C13.2296 3.43803 13.234 3.36976 13.2516 3.3043ZM12.9293 6.68594C14.1797 7.01938 14.9806 7.82032 15.3141 9.07071C15.3434 9.18046 15.4082 9.27744 15.4983 9.3466C15.5885 9.41575 15.6989 9.4532 15.8125 9.45313C15.8575 9.45329 15.9023 9.44752 15.9457 9.43595C16.0112 9.41849 16.0726 9.3883 16.1264 9.3471C16.1802 9.30589 16.2253 9.25449 16.2593 9.19583C16.2932 9.13717 16.3152 9.07239 16.3241 9.00521C16.3329 8.93803 16.3285 8.86976 16.3109 8.8043C15.8813 7.19641 14.8036 6.11876 13.1957 5.68907C13.1303 5.67158 13.062 5.66715 12.9948 5.67604C12.9277 5.68492 12.8629 5.70695 12.8042 5.74087C12.6858 5.80936 12.5994 5.92211 12.5641 6.0543C12.5287 6.1865 12.5474 6.32731 12.6159 6.44577C12.6844 6.56422 12.7971 6.65062 12.9293 6.68594ZM19.7562 15.0219C19.6089 16.1453 19.0576 17.1766 18.2053 17.9231C17.353 18.6696 16.258 19.0802 15.125 19.0781C8.3961 19.0781 2.92188 13.6039 2.92188 6.87501C2.91971 5.74239 3.32993 4.64771 4.07591 3.79545C4.8219 2.9432 5.85262 2.39165 6.97555 2.24383C7.23405 2.21242 7.49577 2.26572 7.72139 2.39573C7.94701 2.52575 8.12436 2.72545 8.22681 2.96485L10.0401 7.01251C10.1201 7.19575 10.1533 7.39606 10.1365 7.59532C10.1197 7.79458 10.0535 7.98651 9.94384 8.15376C9.93278 8.17078 9.92073 8.18714 9.90774 8.20274L8.09704 10.3563C8.08605 10.3787 8.08033 10.4032 8.08033 10.4281C8.08033 10.453 8.08605 10.4775 8.09704 10.4999C8.75532 11.8474 10.1681 13.2499 11.5345 13.9073C11.5574 13.9177 11.5823 13.9226 11.6073 13.9217C11.6324 13.9208 11.6569 13.9141 11.6789 13.9021L13.8007 12.0974C13.8159 12.0842 13.8319 12.0722 13.8488 12.0613C14.0153 11.9503 14.2069 11.8826 14.4062 11.8643C14.6055 11.846 14.8061 11.8777 14.9901 11.9565L19.0498 13.7758C19.286 13.8805 19.4822 14.0584 19.6095 14.2833C19.7367 14.5082 19.7881 14.7681 19.7562 15.0245V15.0219ZM18.7344 14.8947C18.7373 14.8588 18.7288 14.8228 18.7101 14.792C18.6915 14.7611 18.6636 14.7369 18.6304 14.7228L14.5699 12.9035C14.5477 12.895 14.5239 12.8913 14.5002 12.8928C14.4764 12.8943 14.4533 12.9009 14.4324 12.9121L12.3114 14.7168C12.2959 14.7297 12.2796 14.7417 12.2633 14.7529C12.0903 14.8683 11.8903 14.9368 11.6829 14.9519C11.4755 14.9669 11.2678 14.928 11.0799 14.8388C9.50212 14.0766 7.92946 12.5185 7.1672 10.9553C7.07754 10.7686 7.03763 10.5618 7.05133 10.3551C7.06503 10.1484 7.13188 9.9487 7.2454 9.7754C7.25646 9.75816 7.26882 9.74179 7.28235 9.72641L9.0922 7.57282C9.10254 7.55031 9.10789 7.52583 9.10789 7.50106C9.10789 7.47629 9.10254 7.45181 9.0922 7.4293L7.28235 3.37821C7.27041 3.3457 7.24892 3.31755 7.2207 3.29746C7.19249 3.27737 7.15886 3.26628 7.12423 3.26563H7.10446C6.23043 3.3819 5.42859 3.81232 4.84868 4.47652C4.26878 5.14071 3.95044 5.99328 3.95313 6.87501C3.95313 13.035 8.96501 18.0469 15.125 18.0469C16.0069 18.0495 16.8595 17.7311 17.5238 17.151C18.188 16.5709 18.6183 15.7689 18.7344 14.8947Z" fill="black"/>
</g>
</svg>
