<svg width="14" height="14" viewBox="0 0 14 14" fill="none" xmlns="http://www.w3.org/2000/svg">
<g id="camera-solid 1" clip-path="url(#clip0_1608_5257)">
<path id="Vector" d="M4.07695 1.77188L3.79258 2.625H1.75C0.784766 2.625 0 3.40977 0 4.375V11.375C0 12.3402 0.784766 13.125 1.75 13.125H12.25C13.2152 13.125 14 12.3402 14 11.375V4.375C14 3.40977 13.2152 2.625 12.25 2.625H10.2074L9.92305 1.77188C9.74531 1.23594 9.24492 0.875 8.67891 0.875H5.32109C4.75508 0.875 4.25469 1.23594 4.07695 1.77188ZM7 5.25C7.69619 5.25 8.36387 5.52656 8.85616 6.01884C9.34844 6.51113 9.625 7.17881 9.625 7.875C9.625 8.57119 9.34844 9.23887 8.85616 9.73116C8.36387 10.2234 7.69619 10.5 7 10.5C6.30381 10.5 5.63613 10.2234 5.14384 9.73116C4.65156 9.23887 4.375 8.57119 4.375 7.875C4.375 7.17881 4.65156 6.51113 5.14384 6.01884C5.63613 5.52656 6.30381 5.25 7 5.25Z" fill="#9DA1B4"/>
</g>
<defs>
<clipPath id="clip0_1608_5257">
<rect width="14" height="14" fill="white"/>
</clipPath>
</defs>
</svg>
