<svg width="16" height="17" viewBox="0 0 16 17" fill="none" xmlns="http://www.w3.org/2000/svg">
<path d="M4.15003 3.7074C4.0243 3.58597 3.8559 3.51877 3.6811 3.52029C3.5063 3.52181 3.33909 3.59192 3.21549 3.71553C3.09188 3.83913 3.02177 4.00634 3.02025 4.18114C3.01873 4.35594 3.08593 4.52434 3.20737 4.65007L7.05737 8.50007L3.2067 12.3501C3.14303 12.4116 3.09224 12.4851 3.0573 12.5665C3.02236 12.6478 3.00397 12.7353 3.0032 12.8238C3.00243 12.9123 3.0193 13.0001 3.05282 13.082C3.08634 13.164 3.13584 13.2384 3.19844 13.301C3.26103 13.3636 3.33547 13.4131 3.4174 13.4466C3.49933 13.4801 3.58711 13.497 3.67563 13.4962C3.76415 13.4955 3.85163 13.4771 3.93297 13.4421C4.0143 13.4072 4.08787 13.3564 4.14937 13.2927L8.00003 9.44274L11.85 13.2927C11.9758 13.4142 12.1442 13.4814 12.319 13.4799C12.4938 13.4783 12.661 13.4082 12.7846 13.2846C12.9082 13.161 12.9783 12.9938 12.9798 12.819C12.9813 12.6442 12.9141 12.4758 12.7927 12.3501L8.9427 8.50007L12.7927 4.65007C12.9141 4.52434 12.9813 4.35594 12.9798 4.18114C12.9783 4.00634 12.9082 3.83913 12.7846 3.71553C12.661 3.59192 12.4938 3.52181 12.319 3.52029C12.1442 3.51877 11.9758 3.58597 11.85 3.7074L8.00003 7.55741L4.15003 3.7074Z" fill="black"/>
</svg>
