<svg width="16" height="17" viewBox="0 0 16 17" fill="none" xmlns="http://www.w3.org/2000/svg">
<path d="M11.3538 9.11672L6.35378 14.1167C6.30733 14.1632 6.25218 14.2 6.19148 14.2252C6.13079 14.2503 6.06573 14.2633 6.00003 14.2633C5.93434 14.2633 5.86928 14.2503 5.80859 14.2252C5.74789 14.2 5.69274 14.1632 5.64628 14.1167C5.59983 14.0703 5.56298 14.0151 5.53784 13.9544C5.5127 13.8937 5.49976 13.8287 5.49976 13.763C5.49976 13.6973 5.5127 13.6322 5.53784 13.5715C5.56298 13.5108 5.59983 13.4557 5.64628 13.4092L10.2932 8.76297L5.64628 4.11672C5.55246 4.0229 5.49976 3.89566 5.49976 3.76297C5.49976 3.63029 5.55246 3.50304 5.64628 3.40922C5.7401 3.3154 5.86735 3.2627 6.00003 3.2627C6.13272 3.2627 6.25996 3.3154 6.35378 3.40922L11.3538 8.40922C11.4003 8.45566 11.4372 8.5108 11.4623 8.5715C11.4875 8.6322 11.5004 8.69727 11.5004 8.76297C11.5004 8.82868 11.4875 8.89374 11.4623 8.95444C11.4372 9.01514 11.4003 9.07029 11.3538 9.11672Z" fill="black"/>
</svg>
