<svg width="14" height="14" viewBox="0 0 14 14" fill="none" xmlns="http://www.w3.org/2000/svg">
<g id="Icon/calender">
<path id="Vector" d="M1.1665 11.0834C1.1665 12.075 1.92484 12.8334 2.9165 12.8334H11.0832C12.0748 12.8334 12.8332 12.075 12.8332 11.0834V6.41669H1.1665V11.0834ZM11.0832 2.33335H9.9165V1.75002C9.9165 1.40002 9.68317 1.16669 9.33317 1.16669C8.98317 1.16669 8.74984 1.40002 8.74984 1.75002V2.33335H5.24984V1.75002C5.24984 1.40002 5.0165 1.16669 4.6665 1.16669C4.3165 1.16669 4.08317 1.40002 4.08317 1.75002V2.33335H2.9165C1.92484 2.33335 1.1665 3.09169 1.1665 4.08335V5.25002H12.8332V4.08335C12.8332 3.09169 12.0748 2.33335 11.0832 2.33335Z" fill="black"/>
</g>
</svg>
