<svg width="14" height="15" viewBox="0 0 14 15" fill="none" xmlns="http://www.w3.org/2000/svg">
<g id="Icon/fullpeople">
<path id="Vector" d="M9.33341 10.4167V11.5833H1.16675V10.4167C1.16675 10.4167 1.16675 8.08334 5.25008 8.08334C9.33341 8.08334 9.33341 10.4167 9.33341 10.4167ZM7.29175 4.87501C7.29175 4.47121 7.17201 4.07647 6.94767 3.74072C6.72332 3.40497 6.40446 3.14329 6.03139 2.98876C5.65833 2.83423 5.24782 2.7938 4.85177 2.87257C4.45573 2.95135 4.09194 3.1458 3.80641 3.43133C3.52087 3.71687 3.32642 4.08066 3.24764 4.4767C3.16887 4.87275 3.2093 5.28326 3.36383 5.65632C3.51836 6.02939 3.78004 6.34825 4.11579 6.57259C4.45154 6.79694 4.84628 6.91668 5.25008 6.91668C5.79156 6.91668 6.31087 6.70157 6.69376 6.31869C7.07664 5.9358 7.29175 5.41649 7.29175 4.87501ZM9.29841 8.08334C9.65702 8.36086 9.95045 8.7136 10.1581 9.11672C10.3657 9.51985 10.4824 9.96357 10.5001 10.4167V11.5833H12.8334V10.4167C12.8334 10.4167 12.8334 8.29918 9.29841 8.08334ZM8.75008 2.83334C8.34857 2.83111 7.95588 2.95115 7.62425 3.17751C7.97859 3.67261 8.16911 4.26618 8.16911 4.87501C8.16911 5.48384 7.97859 6.07741 7.62425 6.57251C7.95588 6.79887 8.34857 6.91891 8.75008 6.91668C9.29156 6.91668 9.81087 6.70157 10.1938 6.31869C10.5766 5.9358 10.7917 5.41649 10.7917 4.87501C10.7917 4.33353 10.5766 3.81422 10.1938 3.43133C9.81087 3.04845 9.29156 2.83334 8.75008 2.83334Z" fill="#B1B4C3"/>
</g>
</svg>
