<svg width="18" height="18" viewBox="0 0 18 18" fill="none" xmlns="http://www.w3.org/2000/svg">
<g id="Group">
<path id="Vector" fill-rule="evenodd" clip-rule="evenodd" d="M9.00008 1.29166C6.9557 1.29166 4.99506 2.10379 3.54947 3.54938C2.10387 4.99498 1.29175 6.95562 1.29175 9C1.29175 11.0444 2.10387 13.005 3.54947 14.4506C4.99506 15.8962 6.9557 16.7083 9.00008 16.7083C11.0445 16.7083 13.0051 15.8962 14.4507 14.4506C15.8963 13.005 16.7084 11.0444 16.7084 9C16.7084 6.95562 15.8963 4.99498 14.4507 3.54938C13.0051 2.10379 11.0445 1.29166 9.00008 1.29166ZM0.041748 9C0.041748 4.0525 4.05258 0.0416641 9.00008 0.0416641C13.9476 0.0416641 17.9584 4.0525 17.9584 9C17.9584 13.9475 13.9476 17.9583 9.00008 17.9583C4.05258 17.9583 0.041748 13.9475 0.041748 9ZM5.99758 11.9608C6.04652 11.8949 6.10798 11.8392 6.17846 11.797C6.24893 11.7548 6.32704 11.7269 6.4083 11.7149C6.48957 11.7029 6.57241 11.707 6.65207 11.727C6.73174 11.7471 6.80667 11.7826 6.87258 11.8317C7.47925 12.2817 8.21175 12.5417 9.00008 12.5417C9.78841 12.5417 10.5209 12.2808 11.1276 11.8317C11.1933 11.7805 11.2686 11.743 11.349 11.7214C11.4294 11.6998 11.5133 11.6944 11.5958 11.7056C11.6783 11.7169 11.7577 11.7445 11.8294 11.7868C11.9011 11.8292 11.9636 11.8855 12.0132 11.9523C12.0628 12.0192 12.0986 12.0953 12.1184 12.1761C12.1383 12.257 12.1417 12.341 12.1286 12.4232C12.1155 12.5055 12.0861 12.5843 12.0422 12.655C11.9982 12.7257 11.9405 12.7869 11.8726 12.835C11.0432 13.4551 10.0357 13.7906 9.00008 13.7917C7.96451 13.7906 6.95697 13.4551 6.12758 12.835C5.99444 12.7363 5.90594 12.5888 5.88157 12.4248C5.85719 12.2609 5.89892 12.094 5.99758 11.9608Z" fill="#9DA1B4"/>
<path id="Vector_2" d="M12.3334 7.75C12.3334 8.44 11.9601 9 11.5001 9C11.0401 9 10.6667 8.44 10.6667 7.75C10.6667 7.06 11.0401 6.5 11.5001 6.5C11.9601 6.5 12.3334 7.06 12.3334 7.75ZM7.33341 7.75C7.33341 8.44 6.96008 9 6.50008 9C6.04008 9 5.66675 8.44 5.66675 7.75C5.66675 7.06 6.04008 6.5 6.50008 6.5C6.96008 6.5 7.33341 7.06 7.33341 7.75Z" fill="#9DA1B4"/>
</g>
</svg>
