<svg width="16" height="17" viewBox="0 0 16 17" fill="none" xmlns="http://www.w3.org/2000/svg">
<path d="M8.06659 12.6296L7.99992 12.6963L7.92659 12.6296C4.75992 9.75627 2.66659 7.85627 2.66659 5.92961C2.66659 4.59627 3.66659 3.59627 4.99992 3.59627C6.02658 3.59627 7.02658 4.26294 7.37992 5.16961H8.61992C8.97325 4.26294 9.97325 3.59627 10.9999 3.59627C12.3333 3.59627 13.3333 4.59627 13.3333 5.92961C13.3333 7.85627 11.2399 9.75627 8.06659 12.6296ZM10.9999 2.26294C9.83992 2.26294 8.72658 2.80294 7.99992 3.64961C7.27325 2.80294 6.15992 2.26294 4.99992 2.26294C2.94659 2.26294 1.33325 3.86961 1.33325 5.92961C1.33325 8.44294 3.59992 10.5029 7.03325 13.6163L7.99992 14.4963L8.96658 13.6163C12.3999 10.5029 14.6666 8.44294 14.6666 5.92961C14.6666 3.86961 13.0533 2.26294 10.9999 2.26294Z" fill="black"/>
</svg>
