<svg width="14" height="15" viewBox="0 0 14 15" fill="none" xmlns="http://www.w3.org/2000/svg">
<path d="M7.17508 4.75258C7.29175 4.64758 7.43175 4.58341 7.58341 4.58341C7.74091 4.58341 7.87508 4.64758 7.99758 4.75258C8.10841 4.87508 8.16675 5.01508 8.16675 5.16675C8.16675 5.32425 8.10841 5.45841 7.99758 5.58091C7.87508 5.69175 7.74091 5.75008 7.58341 5.75008C7.43175 5.75008 7.29175 5.69175 7.17508 5.58091C7.06425 5.45841 7.00008 5.32425 7.00008 5.16675C7.00008 5.01508 7.06425 4.87508 7.17508 4.75258ZM5.71675 7.48258C5.71675 7.48258 6.98258 6.47925 7.44341 6.43841C7.87508 6.40341 7.78758 6.89925 7.74675 7.15591L7.74091 7.19091C7.65925 7.50008 7.56008 7.87341 7.46091 8.22925C7.23925 9.04008 7.02341 9.83341 7.07591 9.97925C7.13425 10.1776 7.49591 9.92675 7.75841 9.75175C7.79341 9.72841 7.82258 9.70508 7.85175 9.68758C7.85175 9.68758 7.89841 9.64091 7.94508 9.70508C7.95675 9.72258 7.96841 9.74008 7.98008 9.75175C8.03258 9.83341 8.06175 9.86258 7.99175 9.90925L7.96841 9.92091C7.84008 10.0084 7.29175 10.3934 7.07008 10.5334C6.83091 10.6909 5.91508 11.2159 6.05508 10.1951C6.17758 9.47758 6.34091 8.85925 6.46925 8.37508C6.70841 7.50008 6.81341 7.10341 6.27675 7.44758C6.06091 7.57591 5.93258 7.65758 5.85675 7.71008C5.79258 7.75675 5.78675 7.75675 5.74591 7.68091L5.72841 7.64591L5.69925 7.59925C5.65841 7.54091 5.65841 7.53508 5.71675 7.48258ZM12.8334 7.50008C12.8334 10.7084 10.2084 13.3334 7.00008 13.3334C3.79175 13.3334 1.16675 10.7084 1.16675 7.50008C1.16675 4.29175 3.79175 1.66675 7.00008 1.66675C10.2084 1.66675 12.8334 4.29175 12.8334 7.50008ZM11.6667 7.50008C11.6667 4.92175 9.57841 2.83341 7.00008 2.83341C4.42175 2.83341 2.33341 4.92175 2.33341 7.50008C2.33341 10.0784 4.42175 12.1667 7.00008 12.1667C9.57841 12.1667 11.6667 10.0784 11.6667 7.50008Z" fill="black"/>
</svg>
