<svg width="20" height="21" viewBox="0 0 20 21" fill="none" xmlns="http://www.w3.org/2000/svg">
<path d="M9.99992 6.92952C10.9166 6.92952 11.6666 6.17952 11.6666 5.26286C11.6666 4.34619 10.9166 3.59619 9.99992 3.59619C9.08325 3.59619 8.33325 4.34619 8.33325 5.26286C8.33325 6.17952 9.08325 6.92952 9.99992 6.92952ZM9.99992 8.59619C9.08325 8.59619 8.33325 9.34619 8.33325 10.2629C8.33325 11.1795 9.08325 11.9295 9.99992 11.9295C10.9166 11.9295 11.6666 11.1795 11.6666 10.2629C11.6666 9.34619 10.9166 8.59619 9.99992 8.59619ZM9.99992 13.5962C9.08325 13.5962 8.33325 14.3462 8.33325 15.2629C8.33325 16.1795 9.08325 16.9295 9.99992 16.9295C10.9166 16.9295 11.6666 16.1795 11.6666 15.2629C11.6666 14.3462 10.9166 13.5962 9.99992 13.5962Z" fill="#919191"/>
</svg>
