<svg width="20" height="20" viewBox="0 0 20 20" fill="none" xmlns="http://www.w3.org/2000/svg">
<g id="Icon/organizer">
<path id="Vector" fill-rule="evenodd" clip-rule="evenodd" d="M7.99345 2.66671C7.86239 2.78531 7.72466 2.89632 7.58095 2.99921C7.33262 3.16588 7.05345 3.28088 6.76012 3.33921C6.63262 3.36421 6.49928 3.37505 6.23345 3.39588C5.56595 3.44921 5.23178 3.47588 4.95345 3.57421C4.6352 3.68658 4.34614 3.86877 4.10749 4.10742C3.86884 4.34607 3.68665 4.63513 3.57428 4.95338C3.47595 5.23171 3.44928 5.56588 3.39595 6.23338C3.38686 6.40985 3.36794 6.58568 3.33928 6.76005C3.28095 7.05338 3.16595 7.33255 2.99928 7.58088C2.92678 7.68921 2.84012 7.79088 2.66678 7.99338C2.23262 8.50338 2.01512 8.75838 1.88762 9.02505C1.59345 9.64171 1.59345 10.3584 1.88762 10.975C2.01512 11.2417 2.23262 11.4967 2.66678 12.0067C2.84012 12.2092 2.92678 12.3109 2.99928 12.4192C3.16595 12.6675 3.28095 12.9467 3.33928 13.24C3.36428 13.3675 3.37512 13.5009 3.39595 13.7667C3.44928 14.4342 3.47595 14.7684 3.57428 15.0467C3.68665 15.365 3.86884 15.654 4.10749 15.8927C4.34614 16.1313 4.6352 16.3135 4.95345 16.4259C5.23178 16.5242 5.56595 16.5509 6.23345 16.6042C6.49928 16.625 6.63262 16.6359 6.76012 16.6609C7.05345 16.7192 7.33262 16.835 7.58095 17.0009C7.68928 17.0734 7.79095 17.16 7.99345 17.3334C8.50345 17.7675 8.75845 17.985 9.02512 18.1125C9.64178 18.4067 10.3585 18.4067 10.9751 18.1125C11.2418 17.985 11.4968 17.7675 12.0068 17.3334C12.2093 17.16 12.311 17.0734 12.4193 17.0009C12.6676 16.8342 12.9468 16.7192 13.2401 16.6609C13.3676 16.6359 13.501 16.625 13.7668 16.6042C14.4343 16.5509 14.7684 16.5242 15.0468 16.4259C15.365 16.3135 15.6541 16.1313 15.8927 15.8927C16.1314 15.654 16.3136 15.365 16.426 15.0467C16.5243 14.7684 16.551 14.4342 16.6043 13.7667C16.6251 13.5009 16.636 13.3675 16.661 13.24C16.7193 12.9467 16.8351 12.6675 17.0009 12.4192C17.0734 12.3109 17.1601 12.2092 17.3334 12.0067C17.7676 11.4967 17.9851 11.2417 18.1126 10.975C18.4068 10.3584 18.4068 9.64171 18.1126 9.02505C17.9851 8.75838 17.7676 8.50338 17.3334 7.99338C17.2149 7.86232 17.1038 7.7246 17.0009 7.58088C16.8344 7.33245 16.7189 7.05345 16.661 6.76005C16.6323 6.58568 16.6134 6.40985 16.6043 6.23338C16.551 5.56588 16.5243 5.23171 16.426 4.95338C16.3136 4.63513 16.1314 4.34607 15.8927 4.10742C15.6541 3.86877 15.365 3.68658 15.0468 3.57421C14.7684 3.47588 14.4343 3.44921 13.7668 3.39588C13.5903 3.38679 13.4145 3.36787 13.2401 3.33921C12.9467 3.28129 12.6677 3.16572 12.4193 2.99921C12.2757 2.8961 12.138 2.7851 12.0068 2.66671C11.4968 2.23255 11.2418 2.01505 10.9751 1.88755C10.6707 1.74203 10.3375 1.6665 10.0001 1.6665C9.66269 1.6665 9.32955 1.74203 9.02512 1.88755C8.75845 2.01505 8.50345 2.23255 7.99345 2.66671ZM13.6443 8.21921C13.7621 8.0903 13.8256 7.92094 13.8217 7.74638C13.8177 7.57181 13.7466 7.40548 13.6232 7.28201C13.4997 7.15854 13.3334 7.08744 13.1588 7.0835C12.9842 7.07957 12.8149 7.1431 12.686 7.26088L8.64428 11.3025L7.31428 9.97338C7.18537 9.8556 7.01601 9.79207 6.84144 9.79601C6.66688 9.79994 6.50055 9.87104 6.37708 9.99451C6.25361 10.118 6.18251 10.2843 6.17857 10.4589C6.17464 10.6334 6.23817 10.8028 6.35595 10.9317L8.16428 12.74C8.29146 12.867 8.46378 12.9382 8.64345 12.9382C8.82312 12.9382 8.99544 12.867 9.12262 12.74L13.6451 8.21921H13.6443Z" fill="#5A85EE"/>
</g>
</svg>
