<svg width="14" height="14" viewBox="0 0 14 14" fill="none" xmlns="http://www.w3.org/2000/svg">
<path d="M6.99992 9.70842C7.30934 9.70842 7.60608 9.59428 7.82488 9.39111C8.04367 9.18795 8.16659 8.9124 8.16659 8.62508C8.16659 8.33776 8.04367 8.06221 7.82488 7.85905C7.60608 7.65589 7.30934 7.54175 6.99992 7.54175C6.6905 7.54175 6.39375 7.65589 6.17496 7.85905C5.95617 8.06221 5.83325 8.33776 5.83325 8.62508C5.83325 8.9124 5.95617 9.18795 6.17496 9.39111C6.39375 9.59428 6.6905 9.70842 6.99992 9.70842ZM10.4999 4.83341C10.8093 4.83341 11.1061 4.94755 11.3249 5.15072C11.5437 5.35388 11.6666 5.62943 11.6666 5.91675V11.3334C11.6666 11.6207 11.5437 11.8963 11.3249 12.0994C11.1061 12.3026 10.8093 12.4167 10.4999 12.4167H3.49992C3.1905 12.4167 2.89375 12.3026 2.67496 12.0994C2.45617 11.8963 2.33325 11.6207 2.33325 11.3334V5.91675C2.33325 5.62943 2.45617 5.35388 2.67496 5.15072C2.89375 4.94755 3.1905 4.83341 3.49992 4.83341H4.08325V3.75008C4.08325 3.03179 4.39054 2.34291 4.93752 1.835C5.48451 1.32709 6.22637 1.04175 6.99992 1.04175C7.38294 1.04175 7.76221 1.1118 8.11608 1.24791C8.46994 1.38401 8.79148 1.58351 9.06231 1.835C9.33315 2.08649 9.54799 2.38506 9.69457 2.71365C9.84114 3.04224 9.91659 3.39442 9.91659 3.75008V4.83341H10.4999ZM6.99992 2.12508C6.53579 2.12508 6.09067 2.29629 5.76248 2.60103C5.43429 2.90578 5.24992 3.3191 5.24992 3.75008V4.83341H8.74992V3.75008C8.74992 3.3191 8.56554 2.90578 8.23736 2.60103C7.90917 2.29629 7.46405 2.12508 6.99992 2.12508Z" fill="#5A85EE"/>
</svg>
