<svg width="16" height="17" viewBox="0 0 16 17" fill="none" xmlns="http://www.w3.org/2000/svg">
<path d="M2.33337 6.09632C2.3335 5.46427 2.49701 4.84298 2.80805 4.29274C3.11908 3.74251 3.56706 3.28202 4.10852 2.95597C4.64999 2.62991 5.26654 2.44936 5.89836 2.43183C6.53017 2.4143 7.15579 2.5604 7.71449 2.85594C8.2732 3.15147 8.74603 3.58642 9.08708 4.11856C9.42814 4.6507 9.62585 5.26197 9.66102 5.89305C9.69619 6.52413 9.56763 7.15358 9.28782 7.72033C9.008 8.28707 8.58644 8.77186 8.06403 9.12766C9.18903 9.54028 10.1648 10.2801 10.8658 11.252C11.5668 12.2239 11.9609 13.3833 11.9974 14.581C11.9958 14.7101 11.9444 14.8337 11.8539 14.9258C11.7634 15.0179 11.6408 15.0715 11.5117 15.0754C11.3827 15.0793 11.2571 15.0331 11.1612 14.9466C11.0654 14.86 11.0067 14.7398 10.9974 14.611C10.9577 13.312 10.4137 12.0794 9.48081 11.1746C8.5479 10.2698 7.29934 9.76372 5.9997 9.76372C4.70006 9.76372 3.4515 10.2698 2.51858 11.1746C1.58567 12.0794 1.04173 13.312 1.00203 14.611C0.995358 14.7415 0.937818 14.8643 0.841739 14.9529C0.745661 15.0416 0.618685 15.0891 0.488015 15.0852C0.357346 15.0814 0.233375 15.0265 0.142661 14.9324C0.0519469 14.8383 0.00170561 14.7124 0.00270003 14.5817C0.0390676 13.3838 0.433105 12.2243 1.13409 11.2523C1.83508 10.2803 2.81093 9.54032 3.93603 9.12766C3.44192 8.79141 3.03756 8.3394 2.75821 7.81104C2.47887 7.28267 2.33301 6.69399 2.33337 6.09632ZM6.00003 3.42966C5.29279 3.42966 4.61451 3.71061 4.11441 4.2107C3.61432 4.7108 3.33337 5.38908 3.33337 6.09632C3.33337 6.80357 3.61432 7.48184 4.11441 7.98194C4.61451 8.48204 5.29279 8.76299 6.00003 8.76299C6.70728 8.76299 7.38555 8.48204 7.88565 7.98194C8.38575 7.48184 8.6667 6.80357 8.6667 6.09632C8.6667 5.38908 8.38575 4.7108 7.88565 4.2107C7.38555 3.71061 6.70728 3.42966 6.00003 3.42966ZM11.5267 6.09632C11.428 6.09632 11.332 6.10299 11.2374 6.11632C11.1713 6.12816 11.1035 6.12656 11.038 6.11162C10.9725 6.09668 10.9108 6.06871 10.8563 6.02938C10.8019 5.99005 10.756 5.94016 10.7213 5.88268C10.6865 5.82521 10.6638 5.76133 10.6543 5.69486C10.6448 5.62839 10.6488 5.56069 10.666 5.49579C10.6832 5.4309 10.7134 5.37014 10.7546 5.31714C10.7958 5.26414 10.8473 5.21999 10.906 5.18732C10.9646 5.15465 11.0293 5.13413 11.096 5.12699C11.7591 5.03112 12.4352 5.15845 13.0179 5.48894C13.6007 5.81942 14.057 6.3343 14.3151 6.95254C14.5732 7.57078 14.6184 8.25728 14.4435 8.90401C14.2687 9.55074 13.8838 10.121 13.3494 10.525C14.135 10.8768 14.802 11.4483 15.2699 12.1707C15.7379 12.8932 15.9868 13.7356 15.9867 14.5963C15.9867 14.7289 15.934 14.8561 15.8403 14.9499C15.7465 15.0436 15.6193 15.0963 15.4867 15.0963C15.3541 15.0963 15.2269 15.0436 15.1331 14.9499C15.0394 14.8561 14.9867 14.7289 14.9867 14.5963C14.9866 13.8524 14.7469 13.1283 14.3031 12.5313C13.8593 11.9343 13.235 11.4961 12.5227 11.2817L12.1667 11.175V10.0577L12.44 9.91832C12.8452 9.71308 13.1694 9.37729 13.3602 8.96515C13.5511 8.55301 13.5975 8.08858 13.4919 7.64683C13.3864 7.20508 13.135 6.8118 12.7784 6.53047C12.4219 6.24915 11.9809 6.0962 11.5267 6.09632Z" fill="black"/>
</svg>
