<svg width="16" height="17" viewBox="0 0 16 17" fill="none" xmlns="http://www.w3.org/2000/svg">
<path d="M6.19322 11.3495L8.77988 8.76285L6.19322 6.17618C6.13149 6.11446 6.08253 6.04119 6.04913 5.96055C6.01573 5.8799 5.99854 5.79347 5.99854 5.70618C5.99854 5.6189 6.01573 5.53247 6.04913 5.45182C6.08253 5.37118 6.13149 5.29791 6.19322 5.23618C6.25494 5.17446 6.32821 5.1255 6.40885 5.0921C6.4895 5.0587 6.57593 5.0415 6.66322 5.0415C6.7505 5.0415 6.83693 5.0587 6.91758 5.0921C6.99822 5.1255 7.07149 5.17446 7.13322 5.23618L10.1932 8.29618C10.4532 8.55618 10.4532 8.97618 10.1932 9.23618L7.13322 12.2962C7.07154 12.358 6.99828 12.407 6.91763 12.4405C6.83698 12.4739 6.75053 12.4911 6.66322 12.4911C6.5759 12.4911 6.48945 12.4739 6.4088 12.4405C6.32815 12.407 6.25489 12.358 6.19322 12.2962C5.93988 12.0362 5.93322 11.6095 6.19322 11.3495Z" fill="black"/>
</svg>
