<svg width="20" height="20" viewBox="0 0 20 20" fill="none" xmlns="http://www.w3.org/2000/svg">
<path fill-rule="evenodd" clip-rule="evenodd" d="M9.99984 2.29163C7.95546 2.29163 5.99482 3.10375 4.54922 4.54934C3.10363 5.99494 2.2915 7.95558 2.2915 9.99996C2.2915 12.0443 3.10363 14.005 4.54922 15.4506C5.99482 16.8962 7.95546 17.7083 9.99984 17.7083C12.0442 17.7083 14.0049 16.8962 15.4505 15.4506C16.896 14.005 17.7082 12.0443 17.7082 9.99996C17.7082 7.95558 16.896 5.99494 15.4505 4.54934C14.0049 3.10375 12.0442 2.29163 9.99984 2.29163ZM1.0415 9.99996C1.0415 5.05246 5.05234 1.04163 9.99984 1.04163C14.9473 1.04163 18.9582 5.05246 18.9582 9.99996C18.9582 14.9475 14.9473 18.9583 9.99984 18.9583C5.05234 18.9583 1.0415 14.9475 1.0415 9.99996ZM6.99734 12.9608C7.04627 12.8948 7.10774 12.8391 7.17821 12.7969C7.24869 12.7547 7.32679 12.7268 7.40806 12.7148C7.48933 12.7028 7.57216 12.707 7.65183 12.727C7.73149 12.747 7.80642 12.7826 7.87234 12.8316C8.479 13.2816 9.2115 13.5416 9.99984 13.5416C10.7882 13.5416 11.5207 13.2808 12.1273 12.8316C12.193 12.7805 12.2683 12.743 12.3487 12.7214C12.4291 12.6997 12.513 12.6944 12.5955 12.7056C12.678 12.7168 12.7575 12.7444 12.8291 12.7868C12.9008 12.8292 12.9633 12.8854 13.013 12.9523C13.0626 13.0191 13.0984 13.0952 13.1182 13.1761C13.138 13.257 13.1415 13.341 13.1284 13.4232C13.1153 13.5054 13.0859 13.5842 13.0419 13.6549C12.9979 13.7256 12.9403 13.7868 12.8723 13.835C12.0429 14.4551 11.0354 14.7906 9.99984 14.7916C8.96426 14.7906 7.95673 14.4551 7.12734 13.835C6.99419 13.7363 6.9057 13.5887 6.88132 13.4248C6.85694 13.2609 6.89867 13.094 6.99734 12.9608Z" fill="#9DA1B4"/>
<path d="M13.3332 8.75C13.3332 9.44 12.9598 10 12.4998 10C12.0398 10 11.6665 9.44 11.6665 8.75C11.6665 8.06 12.0398 7.5 12.4998 7.5C12.9598 7.5 13.3332 8.06 13.3332 8.75ZM8.33317 8.75C8.33317 9.44 7.95984 10 7.49984 10C7.03984 10 6.6665 9.44 6.6665 8.75C6.6665 8.06 7.03984 7.5 7.49984 7.5C7.95984 7.5 8.33317 8.06 8.33317 8.75Z" fill="#9DA1B4"/>
</svg>
