<svg width="14" height="15" viewBox="0 0 14 15" fill="none" xmlns="http://www.w3.org/2000/svg">
<g id="Icon/won">
<path id="Vector" d="M6.899 6.72223L6.69678 7.50001H7.33067L7.12456 6.72223H6.899Z" fill="black"/>
<path id="Vector_2" d="M4.64337 7.50001H5.68948L5.89559 6.72223H4.43726L4.64337 7.50001Z" fill="black"/>
<path id="Vector_3" d="M5.16825 9.48333L5.48325 8.27777H4.84937L5.16825 9.48333Z" fill="black"/>
<path id="Vector_4" d="M8.3377 7.50001H9.38381L9.58992 6.72223H8.13159L8.3377 7.50001Z" fill="black"/>
<path id="Vector_5" d="M8.85895 9.48333L9.17784 8.27777H8.54395L8.85895 9.48333Z" fill="black"/>
<path id="Vector_6" d="M7.00006 1.27777C5.76942 1.27777 4.56641 1.6427 3.54318 2.3264C2.51994 3.01011 1.72242 3.98189 1.25147 5.11885C0.780528 6.25581 0.657307 7.5069 0.897393 8.71389C1.13748 9.92088 1.73009 11.0296 2.60028 11.8998C3.47048 12.77 4.57917 13.3626 5.78616 13.6027C6.99316 13.8427 8.24424 13.7195 9.3812 13.2486C10.5182 12.7776 11.4899 11.9801 12.1736 10.9569C12.8574 9.93364 13.2223 8.73063 13.2223 7.49999C13.2223 5.84976 12.5667 4.26711 11.3998 3.10022C10.2329 1.93332 8.65029 1.27777 7.00006 1.27777ZM11.2778 8.27777H10.1851L9.33339 11.5133C9.30637 11.6176 9.24549 11.7099 9.16033 11.7758C9.07516 11.8417 8.97052 11.8774 8.86284 11.8774C8.75515 11.8774 8.65051 11.8417 8.56534 11.7758C8.48018 11.7099 8.4193 11.6176 8.39228 11.5133L7.53672 8.27777H6.49061L5.63895 11.5133C5.61192 11.6176 5.55105 11.7099 5.46588 11.7758C5.38072 11.8417 5.27608 11.8774 5.16839 11.8774C5.0607 11.8774 4.95606 11.8417 4.8709 11.7758C4.78573 11.7099 4.72486 11.6176 4.69784 11.5133L3.84228 8.27777H2.72228C2.61914 8.27777 2.52022 8.2368 2.44729 8.16387C2.37436 8.09094 2.33339 7.99202 2.33339 7.88888C2.33339 7.78574 2.37436 7.68683 2.44729 7.6139C2.52022 7.54097 2.61914 7.49999 2.72228 7.49999H3.63617L3.43006 6.72222H2.72228C2.61914 6.72222 2.52022 6.68124 2.44729 6.60831C2.37436 6.53538 2.33339 6.43647 2.33339 6.33333C2.33339 6.23019 2.37436 6.13127 2.44729 6.05834C2.52022 5.98541 2.61914 5.94444 2.72228 5.94444H3.22783L2.83895 4.51333C2.80594 4.38853 2.82386 4.25573 2.88877 4.14414C2.95368 4.03256 3.06026 3.95133 3.18506 3.91833C3.30986 3.88532 3.44265 3.90325 3.55424 3.96815C3.66582 4.03306 3.74705 4.13964 3.78006 4.26444L4.23117 5.94444H6.09784L6.54117 4.26444C6.56819 4.1602 6.62907 4.06788 6.71423 4.00198C6.7994 3.93607 6.90404 3.90032 7.01172 3.90032C7.11941 3.90032 7.22405 3.93607 7.30922 4.00198C7.39438 4.06788 7.45526 4.1602 7.48228 4.26444L7.92561 5.94444H9.79228L10.2356 4.26444C10.2686 4.13964 10.3498 4.03306 10.4614 3.96815C10.573 3.90325 10.7058 3.88532 10.8306 3.91833C10.9554 3.95133 11.062 4.03256 11.1269 4.14414C11.1918 4.25573 11.2097 4.38853 11.1767 4.51333L10.7878 5.94444H11.2778C11.381 5.94444 11.4799 5.98541 11.5528 6.05834C11.6258 6.13127 11.6667 6.23019 11.6667 6.33333C11.6667 6.43647 11.6258 6.53538 11.5528 6.60831C11.4799 6.68124 11.381 6.72222 11.2778 6.72222H10.5934L10.3873 7.49999H11.2778C11.381 7.49999 11.4799 7.54097 11.5528 7.6139C11.6258 7.68683 11.6667 7.78574 11.6667 7.88888C11.6667 7.99202 11.6258 8.09094 11.5528 8.16387C11.4799 8.2368 11.381 8.27777 11.2778 8.27777Z" fill="black"/>
</g>
</svg>
